<?xml version="1.0" encoding="UTF-8"?> <svg xmlns="http://www.w3.org/2000/svg" width="37" height="40" viewBox="0 0 37 40" fill="none"> <path d="M27.4439 12.1765H30.037C32.3628 12.1765 34.3003 13.9587 34.4935 16.2758L35.9842 34.1581C36.2016 36.7645 34.144 39 31.5277 39H5.47227C2.85599 39 0.798486 36.7645 1.01576 34.1581L2.50642 16.2758C2.69956 13.9587 4.63711 12.1765 6.96293 12.1765H9.55606M27.4439 12.1765H9.55606M27.4439 12.1765V9.94118C27.4439 7.56982 26.5017 5.29561 24.8242 3.6188C23.147 1.94202 20.8721 1 18.5 1C16.1278 1 13.853 1.94202 12.1757 3.6188C10.4984 5.29561 9.55606 7.56982 9.55606 9.94118V12.1765M27.4439 12.1765V21.1176M9.55606 12.1765V21.1176" stroke="black" stroke-width="2" stroke-linecap="round" stroke-linejoin="round"></path> </svg> 